<svg xmlns="http://www.w3.org/2000/svg" viewBox="0 0 5207 1448" width="360" height="100"><g fill="#F0E68C" transform="translate(0,1160) scale(1,-1)"><path transform="translate(0,0)" d="M81.739501953125 0V119.583251953125H241.71923828125V587.017333984375H106.9189453125V678.539794921875Q162.95947265625 688.659912109375 203.3697509765625 703.56005859375Q243.780029296875 718.460205078125 279.260498046875 740.820556640625H388.263427734375V119.583251953125H527.102783203125V0Z"/><path transform="translate(590,0)" d="M162.581787109375 -13.780029296875Q123.40087890625 -13.780029296875 97.2503662109375 14.1005859375Q71.099853515625 41.981201171875 71.099853515625 82.261962890625Q71.099853515625 123.7626953125 97.2503662109375 150.86328125Q123.40087890625 177.9638671875 162.581787109375 177.9638671875Q201.982666015625 177.9638671875 228.1331787109375 150.86328125Q254.28369140625 123.7626953125 254.28369140625 82.261962890625Q254.28369140625 41.981201171875 228.1331787109375 14.1005859375Q201.982666015625 -13.780029296875 162.581787109375 -13.780029296875Z"/><path transform="translate(1142,0)" d="M392.421142578125 -13.780029296875Q322.301025390625 -13.780029296875 261.060791015625 10.7698974609375Q199.820556640625 35.31982421875 153.1903076171875 84.1497802734375Q106.56005859375 132.979736328125 80.3798828125 204.039794921875Q54.19970703125 275.099853515625 54.19970703125 367.340087890625Q54.19970703125 458.80029296875 81.2698974609375 530.5303955078125Q108.340087890625 602.260498046875 155.7503662109375 652.04052734375Q203.16064453125 701.820556640625 265.5108642578125 727.820556640625Q327.861083984375 753.820556640625 398.421142578125 753.820556640625Q469.221435546875 753.820556640625 524.4117431640625 725.3704833984375Q579.60205078125 696.92041015625 615.40234375 659.240234375L537.80029296875 564.817626953125Q509.580322265625 592.577392578125 476.380615234375 609.67724609375Q443.180908203125 626.777099609375 400.76123046875 626.777099609375Q345.062255859375 626.777099609375 300.662841796875 596.197509765625Q256.263427734375 565.617919921875 230.8936767578125 508.7286376953125Q205.52392578125 451.83935546875 205.52392578125 372.020263671875Q205.52392578125 291.421142578125 229.3336181640625 233.5318603515625Q253.143310546875 175.642578125 296.542724609375 144.843017578125Q339.942138671875 114.04345703125 398.3212890625 114.04345703125Q445.9609375 114.04345703125 483.5506591796875 134.703369140625Q521.140380859375 155.36328125 550.43994140625 187.32275390625L628.822021484375 94.68017578125Q583.141845703125 41.219970703125 524.0615234375 13.719970703125Q464.981201171875 -13.780029296875 392.421142578125 -13.780029296875Z"/><path transform="translate(1798,0)" d="M79.259033203125 0V797.900146484375H226.023193359375V596.661376953125L219.0029296875 491.701904296875Q252.422607421875 523.781494140625 295.142578125 548.661376953125Q337.862548828125 573.541259765625 395.20263671875 573.541259765625Q485.56298828125 573.541259765625 526.903076171875 514.2908935546875Q568.2431640625 455.04052734375 568.2431640625 349.140380859375V0H421.47900390625V330.8798828125Q421.47900390625 396.0390625 402.5093994140625 421.87841796875Q383.539794921875 447.7177734375 342.060791015625 447.7177734375Q307.88134765625 447.7177734375 282.5919189453125 431.858154296875Q257.302490234375 415.99853515625 226.023193359375 385.059326171875V0Z"/><path transform="translate(2438,0)" d="M216.43994140625 -13.780029296875Q166.859619140625 -13.780029296875 129.6295166015625 7.8502197265625Q92.3994140625 29.48046875 71.7894287109375 67.220703125Q51.179443359375 104.9609375 51.179443359375 152.620849609375Q51.179443359375 242.180908203125 127.939208984375 291.5810546875Q204.698974609375 340.981201171875 373.338623046875 359.421142578125Q372.218505859375 386.820556640625 363.1085205078125 408.599853515625Q353.99853515625 430.379150390625 333.4088134765625 442.9486083984375Q312.819091796875 455.51806640625 278.099853515625 455.51806640625Q239.260498046875 455.51806640625 201.28076171875 440.538330078125Q163.301025390625 425.55859375 124.04052734375 402.4384765625L71.71923828125 500.0810546875Q105.099853515625 520.661376953125 142.18017578125 537.0513916015625Q179.260498046875 553.44140625 220.2706298828125 563.4913330078125Q261.28076171875 573.541259765625 305.060791015625 573.541259765625Q376.421142578125 573.541259765625 424.0115966796875 545.6512451171875Q471.60205078125 517.76123046875 495.8524169921875 463.0108642578125Q520.102783203125 408.260498046875 520.102783203125 326.95947265625V0H400.3994140625L389.939208984375 59.859619140625H385.379150390625Q349.279296875 28.419677734375 307.01953125 7.31982421875Q264.759765625 -13.780029296875 216.43994140625 -13.780029296875ZM264.681640625 101.123046875Q296.0810546875 101.123046875 321.580322265625 115.4327392578125Q347.07958984375 129.742431640625 373.338623046875 155.8017578125V268.35888671875Q305.3603515625 260.259033203125 265.161376953125 245.1693115234375Q224.96240234375 230.07958984375 208.0528564453125 209.6700439453125Q191.143310546875 189.260498046875 191.143310546875 163.76123046875Q191.143310546875 130.84228515625 211.7127685546875 115.982666015625Q232.2822265625 101.123046875 264.681640625 101.123046875Z"/><path transform="translate(3029,0)" d="M79.259033203125 0V559.76123046875H198.96240234375L210.422607421875 485.901611328125H213.20263671875Q249.5224609375 522.221435546875 293.6925048828125 547.88134765625Q337.862548828125 573.541259765625 395.20263671875 573.541259765625Q485.56298828125 573.541259765625 526.903076171875 514.2908935546875Q568.2431640625 455.04052734375 568.2431640625 349.140380859375V0H421.47900390625V330.8798828125Q421.47900390625 396.0390625 402.5093994140625 421.87841796875Q383.539794921875 447.7177734375 342.060791015625 447.7177734375Q307.88134765625 447.7177734375 282.5919189453125 431.858154296875Q257.302490234375 415.99853515625 226.023193359375 385.059326171875V0Z"/><path transform="translate(3670,0)" d="M79.259033203125 0V559.76123046875H198.96240234375L210.422607421875 485.901611328125H213.20263671875Q249.5224609375 522.221435546875 293.6925048828125 547.88134765625Q337.862548828125 573.541259765625 395.20263671875 573.541259765625Q485.56298828125 573.541259765625 526.903076171875 514.2908935546875Q568.2431640625 455.04052734375 568.2431640625 349.140380859375V0H421.47900390625V330.8798828125Q421.47900390625 396.0390625 402.5093994140625 421.87841796875Q383.539794921875 447.7177734375 342.060791015625 447.7177734375Q307.88134765625 447.7177734375 282.5919189453125 431.858154296875Q257.302490234375 415.99853515625 226.023193359375 385.059326171875V0Z"/><path transform="translate(4311,0)" d="M323.40087890625 -13.780029296875Q244.92041015625 -13.780029296875 181.7301025390625 21.1700439453125Q118.539794921875 56.1201171875 81.359619140625 121.9102783203125Q44.179443359375 187.700439453125 44.179443359375 279.940673828125Q44.179443359375 348.060791015625 65.799560546875 402.180908203125Q87.419677734375 456.301025390625 124.599853515625 494.7510986328125Q161.780029296875 533.201171875 208.520263671875 553.3712158203125Q255.260498046875 573.541259765625 304.720703125 573.541259765625Q382.101318359375 573.541259765625 434.0115966796875 539.301025390625Q485.921875 505.060791015625 512.3719482421875 444.7105712890625Q538.822021484375 384.3603515625 538.822021484375 306.3603515625Q538.822021484375 285.8798828125 536.8719482421875 267.6295166015625Q534.921875 249.379150390625 532.141845703125 238.379150390625H186.703369140625Q192.943603515625 192.780029296875 214.1534423828125 162.0709228515625Q235.36328125 131.36181640625 268.102783203125 115.46240234375Q300.84228515625 99.56298828125 342.5615234375 99.56298828125Q376.64111328125 99.56298828125 406.9609375 109.44287109375Q437.28076171875 119.32275390625 468.060791015625 138.20263671875L517.60205078125 47.92041015625Q476.681640625 19.780029296875 426.0311279296875 3.0Q375.380615234375 -13.780029296875 323.40087890625 -13.780029296875ZM184.36328125 336.901611328125H413.338623046875Q413.338623046875 393.19970703125 387.4493408203125 426.698974609375Q361.56005859375 460.1982421875 307.060791015625 460.1982421875Q278.00146484375 460.1982421875 252.2120361328125 446.398681640625Q226.422607421875 432.59912109375 208.3929443359375 405.3798828125Q190.36328125 378.16064453125 184.36328125 336.901611328125Z"/><path transform="translate(4892,0)" d="M217.502197265625 -13.780029296875Q166.180908203125 -13.780029296875 135.8502197265625 7.3704833984375Q105.51953125 28.52099609375 92.3892822265625 67.141845703125Q79.259033203125 105.7626953125 79.259033203125 157.28369140625V797.900146484375H226.023193359375V151.28369140625Q226.023193359375 125.92333984375 235.5333251953125 115.86328125Q245.04345703125 105.80322265625 255.04345703125 105.80322265625Q259.603515625 105.80322265625 263.603515625 106.30322265625Q267.603515625 106.80322265625 274.823486328125 107.80322265625L292.743896484375 -1.19970703125Q280.28369140625 -6.099853515625 261.80322265625 -9.93994140625Q243.32275390625 -13.780029296875 217.502197265625 -13.780029296875Z"/></g></svg>