<svg xmlns="http://www.w3.org/2000/svg" viewBox="0 0 3670 1448" width="253" height="100"><g fill="#F0E68C" transform="translate(0,1160) scale(1,-1)"><path transform="translate(0,0)" d="M42.8798828125 0V84.622314453125Q143.798828125 175.341552734375 215.338623046875 252.0810546875Q286.87841796875 328.820556640625 324.778564453125 395.18017578125Q362.6787109375 461.539794921875 362.6787109375 518.619384765625Q362.6787109375 555.47900390625 350.078857421875 582.3885498046875Q337.47900390625 609.298095703125 312.619384765625 623.7177734375Q287.759765625 638.137451171875 252.04052734375 638.137451171875Q211.620849609375 638.137451171875 178.26123046875 615.6475830078125Q144.901611328125 593.15771484375 116.581787109375 561.51806640625L35.419677734375 641.460205078125Q86.68017578125 696.940673828125 141.200439453125 725.380615234375Q195.720703125 753.820556640625 271.421142578125 753.820556640625Q341.221435546875 753.820556640625 393.581787109375 725.5904541015625Q445.942138671875 697.3603515625 475.182373046875 646.400146484375Q504.422607421875 595.43994140625 504.422607421875 526.419677734375Q504.422607421875 459.1201171875 470.602783203125 389.6505126953125Q436.782958984375 320.180908203125 380.8336181640625 251.0615234375Q324.88427734375 181.942138671875 257.32568359375 115.36328125Q285.765625 118.92333984375 319.2757568359375 121.5933837890625Q352.785888671875 124.263427734375 378.665771484375 124.263427734375H538.862548828125V0Z"/><path transform="translate(590,0)" d="M162.581787109375 -13.780029296875Q123.40087890625 -13.780029296875 97.2503662109375 14.1005859375Q71.099853515625 41.981201171875 71.099853515625 82.261962890625Q71.099853515625 123.7626953125 97.2503662109375 150.86328125Q123.40087890625 177.9638671875 162.581787109375 177.9638671875Q201.982666015625 177.9638671875 228.1331787109375 150.86328125Q254.28369140625 123.7626953125 254.28369140625 82.261962890625Q254.28369140625 41.981201171875 228.1331787109375 14.1005859375Q201.982666015625 -13.780029296875 162.581787109375 -13.780029296875Z"/><path transform="translate(1142,0)" d="M239.140380859375 -13.780029296875Q183.260498046875 -13.780029296875 125.68017578125 8.1099853515625Q68.099853515625 30 26.07958984375 64.460205078125L92.76123046875 157.422607421875Q130.44140625 128.642578125 166.9312744140625 112.1527099609375Q203.421142578125 95.662841796875 242.700439453125 95.662841796875Q284.51953125 95.662841796875 304.3690185546875 112.2822265625Q324.218505859375 128.901611328125 324.218505859375 155.180908203125Q324.218505859375 176.140380859375 307.338623046875 190.56005859375Q290.458740234375 204.979736328125 263.4688720703125 216.4696044921875Q236.47900390625 227.95947265625 207.0390625 238.95947265625Q171.71923828125 253.179443359375 137.2293701171875 273.299560546875Q102.739501953125 293.419677734375 80.07958984375 324.9298095703125Q57.419677734375 356.43994140625 57.419677734375 403Q57.419677734375 453.260498046875 83.0499267578125 491.6707763671875Q108.68017578125 530.0810546875 155.4305419921875 551.8111572265625Q202.180908203125 573.541259765625 265.541259765625 573.541259765625Q326.60205078125 573.541259765625 374.182373046875 552.6910400390625Q421.7626953125 531.8408203125 456.0029296875 504.720703125L389.76123046875 416.098388671875Q359.861083984375 437.658447265625 330.2510986328125 450.87841796875Q300.64111328125 464.098388671875 269.781494140625 464.098388671875Q231.302490234375 464.098388671875 213.1729736328125 448.97900390625Q195.04345703125 433.859619140625 195.04345703125 409.68017578125Q195.04345703125 389.6005859375 210.203369140625 376.5108642578125Q225.36328125 363.421142578125 251.1331787109375 353.4312744140625Q276.903076171875 343.44140625 306.343017578125 332.221435546875Q334.44287109375 321.781494140625 361.9327392578125 308.50146484375Q389.422607421875 295.221435546875 412.08251953125 275.88134765625Q434.742431640625 256.541259765625 448.2923583984375 229.481201171875Q461.84228515625 202.421142578125 461.84228515625 163.421142578125Q461.84228515625 114.28076171875 436.382080078125 73.760498046875Q410.921875 33.240234375 361.6114501953125 9.7301025390625Q312.301025390625 -13.780029296875 239.140380859375 -13.780029296875Z"/><path transform="translate(1637,0)" d="M79.259033203125 0V797.900146484375H223.68310546875V319.584716796875H228.023193359375L418.68017578125 559.76123046875H580.024658203125L388.183837890625 329.140380859375L597.544189453125 0H438.419677734375L302.44140625 232.7177734375L223.68310546875 141.8798828125V0Z"/><path transform="translate(2241,0)" d="M79.259033203125 0V559.76123046875H226.023193359375V0ZM152.861083984375 650.6396484375Q114.240234375 650.6396484375 90.979736328125 672.56005859375Q67.71923828125 694.48046875 67.71923828125 731.421142578125Q67.71923828125 767.141845703125 90.979736328125 788.9522705078125Q114.240234375 810.7626953125 152.861083984375 810.7626953125Q190.48193359375 810.7626953125 214.242431640625 788.9522705078125Q238.0029296875 767.141845703125 238.0029296875 731.421142578125Q238.0029296875 694.48046875 214.242431640625 672.56005859375Q190.48193359375 650.6396484375 152.861083984375 650.6396484375Z"/><path transform="translate(2545,0)" d="M217.502197265625 -13.780029296875Q166.180908203125 -13.780029296875 135.8502197265625 7.3704833984375Q105.51953125 28.52099609375 92.3892822265625 67.141845703125Q79.259033203125 105.7626953125 79.259033203125 157.28369140625V797.900146484375H226.023193359375V151.28369140625Q226.023193359375 125.92333984375 235.5333251953125 115.86328125Q245.04345703125 105.80322265625 255.04345703125 105.80322265625Q259.603515625 105.80322265625 263.603515625 106.30322265625Q267.603515625 106.80322265625 274.823486328125 107.80322265625L292.743896484375 -1.19970703125Q280.28369140625 -6.099853515625 261.80322265625 -9.93994140625Q243.32275390625 -13.780029296875 217.502197265625 -13.780029296875Z"/><path transform="translate(2860,0)" d="M217.502197265625 -13.780029296875Q166.180908203125 -13.780029296875 135.8502197265625 7.3704833984375Q105.51953125 28.52099609375 92.3892822265625 67.141845703125Q79.259033203125 105.7626953125 79.259033203125 157.28369140625V797.900146484375H226.023193359375V151.28369140625Q226.023193359375 125.92333984375 235.5333251953125 115.86328125Q245.04345703125 105.80322265625 255.04345703125 105.80322265625Q259.603515625 105.80322265625 263.603515625 106.30322265625Q267.603515625 106.80322265625 274.823486328125 107.80322265625L292.743896484375 -1.19970703125Q280.28369140625 -6.099853515625 261.80322265625 -9.93994140625Q243.32275390625 -13.780029296875 217.502197265625 -13.780029296875Z"/><path transform="translate(3175,0)" d="M239.140380859375 -13.780029296875Q183.260498046875 -13.780029296875 125.68017578125 8.1099853515625Q68.099853515625 30 26.07958984375 64.460205078125L92.76123046875 157.422607421875Q130.44140625 128.642578125 166.9312744140625 112.1527099609375Q203.421142578125 95.662841796875 242.700439453125 95.662841796875Q284.51953125 95.662841796875 304.3690185546875 112.2822265625Q324.218505859375 128.901611328125 324.218505859375 155.180908203125Q324.218505859375 176.140380859375 307.338623046875 190.56005859375Q290.458740234375 204.979736328125 263.4688720703125 216.4696044921875Q236.47900390625 227.95947265625 207.0390625 238.95947265625Q171.71923828125 253.179443359375 137.2293701171875 273.299560546875Q102.739501953125 293.419677734375 80.07958984375 324.9298095703125Q57.419677734375 356.43994140625 57.419677734375 403Q57.419677734375 453.260498046875 83.0499267578125 491.6707763671875Q108.68017578125 530.0810546875 155.4305419921875 551.8111572265625Q202.180908203125 573.541259765625 265.541259765625 573.541259765625Q326.60205078125 573.541259765625 374.182373046875 552.6910400390625Q421.7626953125 531.8408203125 456.0029296875 504.720703125L389.76123046875 416.098388671875Q359.861083984375 437.658447265625 330.2510986328125 450.87841796875Q300.64111328125 464.098388671875 269.781494140625 464.098388671875Q231.302490234375 464.098388671875 213.1729736328125 448.97900390625Q195.04345703125 433.859619140625 195.04345703125 409.68017578125Q195.04345703125 389.6005859375 210.203369140625 376.5108642578125Q225.36328125 363.421142578125 251.1331787109375 353.4312744140625Q276.903076171875 343.44140625 306.343017578125 332.221435546875Q334.44287109375 321.781494140625 361.9327392578125 308.50146484375Q389.422607421875 295.221435546875 412.08251953125 275.88134765625Q434.742431640625 256.541259765625 448.2923583984375 229.481201171875Q461.84228515625 202.421142578125 461.84228515625 163.421142578125Q461.84228515625 114.28076171875 436.382080078125 73.760498046875Q410.921875 33.240234375 361.6114501953125 9.7301025390625Q312.301025390625 -13.780029296875 239.140380859375 -13.780029296875Z"/></g></svg>